<svg xmlns="http://www.w3.org/2000/svg" viewBox="0 0 128 128" fill="none">
  <rect width="128" height="128" rx="31" fill="#1C1914"/>
  <path d="M31 34.5c0-5.8 4.7-10.5 10.5-10.5h45C92.3 24 97 28.7 97 34.5v45c0 5.8-4.7 10.5-10.5 10.5h-45C35.7 90 31 85.3 31 79.5v-45Z" fill="#F3EFE6"/>
  <path d="M45 43h43M45 63h31M45 83h17" stroke="#1C1914" stroke-width="6" stroke-linecap="round"/>
  <path d="M39 96.5c16.5 0 20.5-29.5 34-29.5 10.1 0 11.8 22.5 24.5 22.5 5.4 0 9.2-4.1 12.5-9.5" stroke="#B65C38" stroke-width="9" stroke-linecap="round"/>
</svg>
